<svg width="145" height="60" viewBox="0 0 145 60" fill="none" xmlns="http://www.w3.org/2000/svg">
<rect width="145" height="60" rx="3" fill="url(#paint0_linear)"/>
<path d="M36.1348 32.6211C36.1348 33.3945 35.8555 34.0039 35.2969 34.4492C34.7422 34.8945 33.9688 35.1172 32.9766 35.1172C32.0625 35.1172 31.2539 34.9453 30.5508 34.6016V32.9141C31.1289 33.1719 31.6172 33.3535 32.0156 33.459C32.418 33.5645 32.7852 33.6172 33.1172 33.6172C33.5156 33.6172 33.8203 33.541 34.0312 33.3887C34.2461 33.2363 34.3535 33.0098 34.3535 32.709C34.3535 32.541 34.3066 32.3926 34.2129 32.2637C34.1191 32.1309 33.9805 32.0039 33.7969 31.8828C33.6172 31.7617 33.248 31.5684 32.6895 31.3027C32.166 31.0566 31.7734 30.8203 31.5117 30.5938C31.25 30.3672 31.041 30.1035 30.8848 29.8027C30.7285 29.502 30.6504 29.1504 30.6504 28.748C30.6504 27.9902 30.9062 27.3945 31.418 26.9609C31.9336 26.5273 32.6445 26.3105 33.5508 26.3105C33.9961 26.3105 34.4199 26.3633 34.8223 26.4688C35.2285 26.5742 35.6523 26.7227 36.0938 26.9141L35.5078 28.3262C35.0508 28.1387 34.6719 28.0078 34.3711 27.9336C34.0742 27.8594 33.7812 27.8223 33.4922 27.8223C33.1484 27.8223 32.8848 27.9023 32.7012 28.0625C32.5176 28.2227 32.4258 28.4316 32.4258 28.6895C32.4258 28.8496 32.4629 28.9902 32.5371 29.1113C32.6113 29.2285 32.7285 29.3438 32.8887 29.457C33.0527 29.5664 33.4375 29.7656 34.043 30.0547C34.8438 30.4375 35.3926 30.8223 35.6895 31.209C35.9863 31.5918 36.1348 32.0625 36.1348 32.6211ZM42.9316 35L42.3105 32.9609H39.1875L38.5664 35H36.6094L39.6328 26.3984H41.8535L44.8887 35H42.9316ZM41.877 31.4375C41.3027 29.5898 40.9785 28.5449 40.9043 28.3027C40.834 28.0605 40.7832 27.8691 40.752 27.7285C40.623 28.2285 40.2539 29.4648 39.6445 31.4375H41.877ZM45.9727 35V26.4336H47.7891V35H45.9727ZM49.9453 26.4336H52.6113C53.8262 26.4336 54.707 26.6074 55.2539 26.9551C55.8047 27.2988 56.0801 27.8477 56.0801 28.6016C56.0801 29.1133 55.959 29.5332 55.7168 29.8613C55.4785 30.1895 55.1602 30.3867 54.7617 30.4531V30.5117C55.3047 30.6328 55.6953 30.8594 55.9336 31.1914C56.1758 31.5234 56.2969 31.9648 56.2969 32.5156C56.2969 33.2969 56.0137 33.9062 55.4473 34.3438C54.8848 34.7812 54.1191 35 53.1504 35H49.9453V26.4336ZM51.7617 29.8262H52.8164C53.3086 29.8262 53.6641 29.75 53.8828 29.5977C54.1055 29.4453 54.2168 29.1934 54.2168 28.8418C54.2168 28.5137 54.0957 28.2793 53.8535 28.1387C53.6152 27.9941 53.2363 27.9219 52.7168 27.9219H51.7617V29.8262ZM51.7617 31.2676V33.5H52.9453C53.4453 33.5 53.8145 33.4043 54.0527 33.2129C54.291 33.0215 54.4102 32.7285 54.4102 32.334C54.4102 31.623 53.9023 31.2676 52.8867 31.2676H51.7617ZM63.252 35L62.6309 32.9609H59.5078L58.8867 35H56.9297L59.9531 26.3984H62.1738L65.209 35H63.252ZM62.1973 31.4375C61.623 29.5898 61.2988 28.5449 61.2246 28.3027C61.1543 28.0605 61.1035 27.8691 61.0723 27.7285C60.9434 28.2285 60.5742 29.4648 59.9648 31.4375H62.1973ZM73.0371 35L70.9746 28.2793H70.9219C70.9961 29.6465 71.0332 30.5586 71.0332 31.0156V35H69.4102V26.4336H71.8828L73.9102 32.9844H73.9453L76.0957 26.4336H78.5684V35H76.875V30.9453C76.875 30.7539 76.877 30.5332 76.8809 30.2832C76.8887 30.0332 76.916 29.3691 76.9629 28.291H76.9102L74.7012 35H73.0371ZM85.9746 35L85.3535 32.9609H82.2305L81.6094 35H79.6523L82.6758 26.3984H84.8965L87.9316 35H85.9746ZM84.9199 31.4375C84.3457 29.5898 84.0215 28.5449 83.9473 28.3027C83.877 28.0605 83.8262 27.8691 83.7949 27.7285C83.666 28.2285 83.2969 29.4648 82.6875 31.4375H84.9199ZM89.0156 35V26.4336H90.832V35H89.0156ZM98.0449 32.6211C98.0449 33.3945 97.7656 34.0039 97.207 34.4492C96.6523 34.8945 95.8789 35.1172 94.8867 35.1172C93.9727 35.1172 93.1641 34.9453 92.4609 34.6016V32.9141C93.0391 33.1719 93.5273 33.3535 93.9258 33.459C94.3281 33.5645 94.6953 33.6172 95.0273 33.6172C95.4258 33.6172 95.7305 33.541 95.9414 33.3887C96.1562 33.2363 96.2637 33.0098 96.2637 32.709C96.2637 32.541 96.2168 32.3926 96.123 32.2637C96.0293 32.1309 95.8906 32.0039 95.707 31.8828C95.5273 31.7617 95.1582 31.5684 94.5996 31.3027C94.0762 31.0566 93.6836 30.8203 93.4219 30.5938C93.1602 30.3672 92.9512 30.1035 92.7949 29.8027C92.6387 29.502 92.5605 29.1504 92.5605 28.748C92.5605 27.9902 92.8164 27.3945 93.3281 26.9609C93.8438 26.5273 94.5547 26.3105 95.4609 26.3105C95.9062 26.3105 96.3301 26.3633 96.7324 26.4688C97.1387 26.5742 97.5625 26.7227 98.0039 26.9141L97.418 28.3262C96.9609 28.1387 96.582 28.0078 96.2812 27.9336C95.9844 27.8594 95.6914 27.8223 95.4023 27.8223C95.0586 27.8223 94.7949 27.9023 94.6113 28.0625C94.4277 28.2227 94.3359 28.4316 94.3359 28.6895C94.3359 28.8496 94.373 28.9902 94.4473 29.1113C94.5215 29.2285 94.6387 29.3438 94.7988 29.457C94.9629 29.5664 95.3477 29.7656 95.9531 30.0547C96.7539 30.4375 97.3027 30.8223 97.5996 31.209C97.8965 31.5918 98.0449 32.0625 98.0449 32.6211Z" fill="white"/>
<rect x="108" y="35.6066" width="8" height="1" rx="0.5" transform="rotate(-45 108 35.6066)" fill="white"/>
<rect x="113.657" y="31.364" width="8" height="1" rx="0.5" transform="rotate(-135 113.657 31.364)" fill="white"/>
<defs>
<linearGradient id="paint0_linear" x1="72.5" y1="0" x2="72.5" y2="60" gradientUnits="userSpaceOnUse">
<stop stop-color="#2082FD"/>
<stop offset="1" stop-color="#217BEA"/>
</linearGradient>
</defs>
</svg>
