<svg width="84" height="40" viewBox="0 0 84 40" fill="none" xmlns="http://www.w3.org/2000/svg">
<rect x="0.5" y="0.5" width="83" height="39" rx="2.5" fill="url(#paint0_linear)" stroke="#217BEA"/>
<path d="M25.0117 25H20.0781V16.4336H25.0117V17.9219H21.8945V19.8027H24.7949V21.291H21.8945V23.5H25.0117V25ZM34.4043 25H32.0957L28.3691 18.5195H28.3164C28.3906 19.6641 28.4277 20.4805 28.4277 20.9688V25H26.8047V16.4336H29.0957L32.8164 22.8496H32.8574C32.7988 21.7363 32.7695 20.9492 32.7695 20.4883V16.4336H34.4043V25ZM41.4531 16.4336H43.2871L40.375 25H38.3945L35.4883 16.4336H37.3223L38.9336 21.5312C39.0234 21.832 39.1152 22.1836 39.209 22.5859C39.3066 22.9844 39.3672 23.2617 39.3906 23.418C39.4336 23.0586 39.5801 22.4297 39.8301 21.5312L41.4531 16.4336ZM44.3711 25V16.4336H46.1875V25H44.3711ZM53.5879 25L52.9668 22.9609H49.8438L49.2227 25H47.2656L50.2891 16.3984H52.5098L55.5449 25H53.5879ZM52.5332 21.4375C51.959 19.5898 51.6348 18.5449 51.5605 18.3027C51.4902 18.0605 51.4395 17.8691 51.4082 17.7285C51.2793 18.2285 50.9102 19.4648 50.3008 21.4375H52.5332ZM58.4453 20.2363H59.0312C59.6055 20.2363 60.0293 20.1406 60.3027 19.9492C60.5762 19.7578 60.7129 19.457 60.7129 19.0469C60.7129 18.6406 60.5723 18.3516 60.291 18.1797C60.0137 18.0078 59.582 17.9219 58.9961 17.9219H58.4453V20.2363ZM58.4453 21.7129V25H56.6289V16.4336H59.125C60.2891 16.4336 61.1504 16.6465 61.709 17.0723C62.2676 17.4941 62.5469 18.1367 62.5469 19C62.5469 19.5039 62.4082 19.9531 62.1309 20.3477C61.8535 20.7383 61.4609 21.0449 60.9531 21.2676C62.2422 23.1934 63.082 24.4375 63.4727 25H61.457L59.4121 21.7129H58.4453Z" fill="white"/>
<defs>
<linearGradient id="paint0_linear" x1="42" y1="0" x2="42" y2="40" gradientUnits="userSpaceOnUse">
<stop stop-color="#2082FD"/>
<stop offset="1" stop-color="#217BEA"/>
</linearGradient>
</defs>
</svg>
