<svg width="197" height="60" viewBox="0 0 197 60" fill="none" xmlns="http://www.w3.org/2000/svg">
<rect x="0.5" y="0.5" width="196" height="59" rx="2.5" fill="url(#paint0_linear)" stroke="#217BEA"/>
<path d="M36.0117 35H31.0781V26.4336H36.0117V27.9219H32.8945V29.8027H35.7949V31.291H32.8945V33.5H36.0117V35ZM45.4043 35H43.0957L39.3691 28.5195H39.3164C39.3906 29.6641 39.4277 30.4805 39.4277 30.9688V35H37.8047V26.4336H40.0957L43.8164 32.8496H43.8574C43.7988 31.7363 43.7695 30.9492 43.7695 30.4883V26.4336H45.4043V35ZM50.8711 35H49.0547V27.9453H46.7285V26.4336H53.1973V27.9453H50.8711V35ZM56.332 30.2363H56.918C57.4922 30.2363 57.916 30.1406 58.1895 29.9492C58.4629 29.7578 58.5996 29.457 58.5996 29.0469C58.5996 28.6406 58.459 28.3516 58.1777 28.1797C57.9004 28.0078 57.4688 27.9219 56.8828 27.9219H56.332V30.2363ZM56.332 31.7129V35H54.5156V26.4336H57.0117C58.1758 26.4336 59.0371 26.6465 59.5957 27.0723C60.1543 27.4941 60.4336 28.1367 60.4336 29C60.4336 29.5039 60.2949 29.9531 60.0176 30.3477C59.7402 30.7383 59.3477 31.0449 58.8398 31.2676C60.1289 33.1934 60.9688 34.4375 61.3594 35H59.3438L57.2988 31.7129H56.332ZM67.3711 35H62.4375V26.4336H67.3711V27.9219H64.2539V29.8027H67.1543V31.291H64.2539V33.5H67.3711V35ZM77.2148 35H72.2812V26.4336H77.2148V27.9219H74.0977V29.8027H76.998V31.291H74.0977V33.5H77.2148V35ZM82.6348 35L80.5723 28.2793H80.5195C80.5938 29.6465 80.6309 30.5586 80.6309 31.0156V35H79.0078V26.4336H81.4805L83.5078 32.9844H83.543L85.6934 26.4336H88.166V35H86.4727V30.9453C86.4727 30.7539 86.4746 30.5332 86.4785 30.2832C86.4863 30.0332 86.5137 29.3691 86.5605 28.291H86.5078L84.2988 35H82.6348ZM97.084 27.8223C96.4004 27.8223 95.8711 28.0801 95.4961 28.5957C95.1211 29.1074 94.9336 29.8223 94.9336 30.7402C94.9336 32.6504 95.6504 33.6055 97.084 33.6055C97.6855 33.6055 98.4141 33.4551 99.2695 33.1543V34.6777C98.5664 34.9707 97.7812 35.1172 96.9141 35.1172C95.668 35.1172 94.7148 34.7402 94.0547 33.9863C93.3945 33.2285 93.0645 32.1426 93.0645 30.7285C93.0645 29.8379 93.2266 29.0586 93.5508 28.3906C93.875 27.7188 94.3398 27.2051 94.9453 26.8496C95.5547 26.4902 96.2676 26.3105 97.084 26.3105C97.916 26.3105 98.752 26.5117 99.5918 26.9141L99.0059 28.3906C98.6855 28.2383 98.3633 28.1055 98.0391 27.9922C97.7148 27.8789 97.3965 27.8223 97.084 27.8223ZM108.873 30.7051C108.873 32.123 108.521 33.2129 107.818 33.9746C107.115 34.7363 106.107 35.1172 104.795 35.1172C103.482 35.1172 102.475 34.7363 101.771 33.9746C101.068 33.2129 100.717 32.1191 100.717 30.6934C100.717 29.2676 101.068 28.1797 101.771 27.4297C102.479 26.6758 103.49 26.2988 104.807 26.2988C106.123 26.2988 107.129 26.6777 107.824 27.4355C108.523 28.1934 108.873 29.2832 108.873 30.7051ZM102.621 30.7051C102.621 31.6621 102.803 32.3828 103.166 32.8672C103.529 33.3516 104.072 33.5938 104.795 33.5938C106.244 33.5938 106.969 32.6309 106.969 30.7051C106.969 28.7754 106.248 27.8105 104.807 27.8105C104.084 27.8105 103.539 28.0547 103.172 28.543C102.805 29.0273 102.621 29.748 102.621 30.7051ZM118.248 35H115.939L112.213 28.5195H112.16C112.234 29.6641 112.271 30.4805 112.271 30.9688V35H110.648V26.4336H112.939L116.66 32.8496H116.701C116.643 31.7363 116.613 30.9492 116.613 30.4883V26.4336H118.248V35ZM123.715 35H121.898V27.9453H119.572V26.4336H126.041V27.9453H123.715V35ZM132.604 35L131.982 32.9609H128.859L128.238 35H126.281L129.305 26.3984H131.525L134.561 35H132.604ZM131.549 31.4375C130.975 29.5898 130.65 28.5449 130.576 28.3027C130.506 28.0605 130.455 27.8691 130.424 27.7285C130.295 28.2285 129.926 29.4648 129.316 31.4375H131.549ZM138.949 35H137.133V27.9453H134.807V26.4336H141.275V27.9453H138.949V35ZM150.369 30.7051C150.369 32.123 150.018 33.2129 149.314 33.9746C148.611 34.7363 147.604 35.1172 146.291 35.1172C144.979 35.1172 143.971 34.7363 143.268 33.9746C142.564 33.2129 142.213 32.1191 142.213 30.6934C142.213 29.2676 142.564 28.1797 143.268 27.4297C143.975 26.6758 144.986 26.2988 146.303 26.2988C147.619 26.2988 148.625 26.6777 149.32 27.4355C150.02 28.1934 150.369 29.2832 150.369 30.7051ZM144.117 30.7051C144.117 31.6621 144.299 32.3828 144.662 32.8672C145.025 33.3516 145.568 33.5938 146.291 33.5938C147.74 33.5938 148.465 32.6309 148.465 30.7051C148.465 28.7754 147.744 27.8105 146.303 27.8105C145.58 27.8105 145.035 28.0547 144.668 28.543C144.301 29.0273 144.117 29.748 144.117 30.7051Z" fill="white"/>
<rect x="161" y="35.6064" width="8" height="1" rx="0.5" transform="rotate(-45 161 35.6064)" fill="white"/>
<rect x="166.657" y="31.3638" width="8" height="1" rx="0.5" transform="rotate(-135 166.657 31.3638)" fill="white"/>
<defs>
<linearGradient id="paint0_linear" x1="98.5" y1="0" x2="98.5" y2="60" gradientUnits="userSpaceOnUse">
<stop stop-color="#2082FD"/>
<stop offset="1" stop-color="#217BEA"/>
</linearGradient>
</defs>
</svg>
