<svg width="99" height="40" viewBox="0 0 99 40" fill="none" xmlns="http://www.w3.org/2000/svg">
<rect x="0.5" y="0.5" width="98" height="39" rx="2.5" fill="url(#paint0_linear)" stroke="#217BEA"/>
<path d="M24.7168 17.8223C24.0332 17.8223 23.5039 18.0801 23.1289 18.5957C22.7539 19.1074 22.5664 19.8223 22.5664 20.7402C22.5664 22.6504 23.2832 23.6055 24.7168 23.6055C25.3184 23.6055 26.0469 23.4551 26.9023 23.1543V24.6777C26.1992 24.9707 25.4141 25.1172 24.5469 25.1172C23.3008 25.1172 22.3477 24.7402 21.6875 23.9863C21.0273 23.2285 20.6973 22.1426 20.6973 20.7285C20.6973 19.8379 20.8594 19.0586 21.1836 18.3906C21.5078 17.7188 21.9727 17.2051 22.5781 16.8496C23.1875 16.4902 23.9004 16.3105 24.7168 16.3105C25.5488 16.3105 26.3848 16.5117 27.2246 16.9141L26.6387 18.3906C26.3184 18.2383 25.9961 18.1055 25.6719 17.9922C25.3477 17.8789 25.0293 17.8223 24.7168 17.8223ZM36.5059 20.7051C36.5059 22.123 36.1543 23.2129 35.4512 23.9746C34.748 24.7363 33.7402 25.1172 32.4277 25.1172C31.1152 25.1172 30.1074 24.7363 29.4043 23.9746C28.7012 23.2129 28.3496 22.1191 28.3496 20.6934C28.3496 19.2676 28.7012 18.1797 29.4043 17.4297C30.1113 16.6758 31.123 16.2988 32.4395 16.2988C33.7559 16.2988 34.7617 16.6777 35.457 17.4355C36.1562 18.1934 36.5059 19.2832 36.5059 20.7051ZM30.2539 20.7051C30.2539 21.6621 30.4355 22.3828 30.7988 22.8672C31.1621 23.3516 31.7051 23.5938 32.4277 23.5938C33.877 23.5938 34.6016 22.6309 34.6016 20.7051C34.6016 18.7754 33.8809 17.8105 32.4395 17.8105C31.7168 17.8105 31.1719 18.0547 30.8047 18.543C30.4375 19.0273 30.2539 19.748 30.2539 20.7051ZM45.8809 25H43.5723L39.8457 18.5195H39.793C39.8672 19.6641 39.9043 20.4805 39.9043 20.9688V25H38.2812V16.4336H40.5723L44.293 22.8496H44.334C44.2754 21.7363 44.2461 20.9492 44.2461 20.4883V16.4336H45.8809V25ZM51.3477 25H49.5312V17.9453H47.2051V16.4336H53.6738V17.9453H51.3477V25ZM60.2363 25L59.6152 22.9609H56.4922L55.8711 25H53.9141L56.9375 16.3984H59.1582L62.1934 25H60.2363ZM59.1816 21.4375C58.6074 19.5898 58.2832 18.5449 58.209 18.3027C58.1387 18.0605 58.0879 17.8691 58.0566 17.7285C57.9277 18.2285 57.5586 19.4648 56.9492 21.4375H59.1816ZM66.582 25H64.7656V17.9453H62.4395V16.4336H68.9082V17.9453H66.582V25ZM78.002 20.7051C78.002 22.123 77.6504 23.2129 76.9473 23.9746C76.2441 24.7363 75.2363 25.1172 73.9238 25.1172C72.6113 25.1172 71.6035 24.7363 70.9004 23.9746C70.1973 23.2129 69.8457 22.1191 69.8457 20.6934C69.8457 19.2676 70.1973 18.1797 70.9004 17.4297C71.6074 16.6758 72.6191 16.2988 73.9355 16.2988C75.252 16.2988 76.2578 16.6777 76.9531 17.4355C77.6523 18.1934 78.002 19.2832 78.002 20.7051ZM71.75 20.7051C71.75 21.6621 71.9316 22.3828 72.2949 22.8672C72.6582 23.3516 73.2012 23.5938 73.9238 23.5938C75.373 23.5938 76.0977 22.6309 76.0977 20.7051C76.0977 18.7754 75.377 17.8105 73.9355 17.8105C73.2129 17.8105 72.668 18.0547 72.3008 18.543C71.9336 19.0273 71.75 19.748 71.75 20.7051Z" fill="white"/>
<defs>
<linearGradient id="paint0_linear" x1="49.5" y1="0" x2="49.5" y2="40" gradientUnits="userSpaceOnUse">
<stop stop-color="#2082FD"/>
<stop offset="1" stop-color="#217BEA"/>
</linearGradient>
</defs>
</svg>
