<svg width="91" height="38" viewBox="0 0 91 38" fill="none" xmlns="http://www.w3.org/2000/svg">
<g clip-path="url(#clip0)">
<path d="M78.6866 26.5097C78.6507 25.6123 78.3511 24.7445 77.8245 24.0121C77.2289 23.1996 76.4063 22.576 75.4572 22.2178C74.8545 21.9777 74.2105 21.8549 73.5605 21.8563C73.1607 21.8575 72.7623 21.9018 72.3722 21.9883C71.9626 22.0769 71.5654 22.2143 71.1893 22.3973C70.5566 22.0513 69.8433 21.8748 69.1201 21.8854H69.056C68.0316 21.8788 67.0331 22.2031 66.2129 22.8089C65.209 22.1123 63.986 21.7534 62.5758 21.7534H62.3793C61.2925 21.7918 60.2223 22.0294 59.2235 22.454C58.2302 22.8654 57.308 23.4272 56.49 24.119C56.011 23.4182 55.3555 22.8526 54.5879 22.4777C53.6683 22.012 52.5709 21.7692 51.3278 21.7692H51.2971C49.1049 21.7958 46.998 22.6112 45.3716 24.0623C45.138 23.7391 44.8665 23.4441 44.563 23.1836C43.5965 22.3405 42.324 21.8563 40.8885 21.7838C40.7294 21.7758 40.573 21.7706 40.4193 21.7706C39.0277 21.7491 37.6608 22.1347 36.4908 22.8788C36.1398 23.1033 35.8116 23.3609 35.5111 23.648C35.2384 23.3296 34.9237 23.0487 34.5754 22.8129C33.5702 22.1136 32.3458 21.7574 30.9343 21.7574H30.7365C29.6501 21.7958 28.5804 22.0333 27.582 22.458C26.7991 22.783 26.0593 23.2012 25.3792 23.7034C24.8082 23.0386 24.0768 22.5264 23.2525 22.2139C22.6494 21.9737 22.0048 21.851 21.3545 21.8524C20.9547 21.8536 20.5562 21.8979 20.1662 21.9843C19.7567 22.0734 19.3595 22.2107 18.9832 22.3933C18.3512 22.0471 17.6382 21.8705 16.9154 21.8814H16.8419C15.652 21.8718 14.5037 22.3134 13.6339 23.115C13.3324 22.8686 13.0038 22.6566 12.6541 22.483C11.7399 22.012 10.6425 21.7692 9.39668 21.7692H9.36728C7.15074 21.7957 5.02196 22.6282 3.38838 24.1071C1.66409 25.6218 0.581391 27.4596 0.172372 29.5706V29.593C-0.228627 31.8214 0.0948456 33.745 1.15215 35.3098C1.16685 35.3309 1.18022 35.3507 1.19626 35.3718C2.05306 36.5513 3.69715 37.9564 6.65652 37.9564H6.66989C8.46838 37.9693 10.2171 37.3737 11.6249 36.2689C11.6597 36.2426 11.6917 36.2122 11.7265 36.1858C11.8537 36.6467 12.1312 37.0533 12.5161 37.3428C12.901 37.6324 13.3719 37.7887 13.8558 37.7875H17.1025C17.6002 37.7858 18.0828 37.6184 18.4721 37.3124C18.8614 37.0065 19.1348 36.5798 19.2479 36.1014L20.6728 30.0561C20.7276 29.8173 20.781 29.6009 20.8305 29.3964C21.044 29.58 21.2797 29.7369 21.5322 29.8635C21.1633 31.9916 21.5122 33.8387 22.5708 35.3573L22.5976 35.3929C23.4597 36.5803 25.1092 37.9881 28.0659 37.9881C29.9612 37.9881 31.6428 37.426 33.0676 36.3164L33.089 36.2993C33.2441 36.1766 33.3951 36.046 33.5435 35.9101C33.8046 36.2044 34.0928 36.4743 34.4043 36.7162L34.4417 36.7439C35.5391 37.5632 36.952 37.9788 38.6415 37.9788H38.8527C40.3084 37.9445 41.5327 37.6107 42.4804 36.9906C42.9119 36.7155 43.3148 36.399 43.6834 36.046C44.6338 37.0276 46.171 37.9564 48.577 37.9564H48.5917C50.3901 37.9688 52.1386 37.3734 53.5467 36.2689C53.8329 36.0453 54.1052 35.8047 54.362 35.5486C55.2522 36.6977 56.883 37.9907 59.7087 37.9907C61.2876 38.0151 62.8378 37.5726 64.1598 36.7202C64.2111 36.8065 64.2682 36.8894 64.3309 36.9682C64.538 37.2247 64.8011 37.4318 65.1006 37.5741C65.4 37.7164 65.7281 37.7903 66.0605 37.7902H69.3073C69.8071 37.7905 70.2923 37.6237 70.6838 37.317C71.0753 37.0104 71.35 36.5819 71.4633 36.1014L72.8868 30.0561C72.943 29.8173 72.9951 29.6009 73.0459 29.3964C73.507 29.7946 74.067 30.0646 74.6686 30.1788C74.7171 30.1894 74.7662 30.1973 74.8156 30.2026H74.8531C74.9025 30.2092 74.952 30.2131 75.0001 30.2171C75.0897 30.2171 75.1779 30.225 75.2674 30.225C75.7423 30.2363 76.2142 30.1481 76.652 29.9661C77.0897 29.7842 77.4834 29.5127 77.8071 29.1695C77.8178 29.1576 77.8298 29.1458 77.8405 29.1326C78.2669 28.655 78.7641 27.804 78.6866 26.5097Z" fill="#424143"/>
<path d="M24.2685 26.6194C24.2516 26.1396 24.0942 25.6749 23.8153 25.2815C23.4673 24.8099 22.9861 24.4501 22.4319 24.2472C21.8622 24.021 21.2355 23.9749 20.6381 24.1152C20.2399 24.203 19.8639 24.3697 19.533 24.6054C19.2021 24.841 18.9232 25.1407 18.7133 25.486C18.6436 25.1453 18.4819 24.8294 18.2455 24.5717C17.9193 24.2379 17.4622 24.0691 16.8914 24.0691H16.842C15.1979 24.0691 14.1994 25.3409 13.8786 27.849L13.8372 28.1736H14.9519L15.0027 27.9479C15.4893 25.7816 15.921 25.6167 16.0039 25.6061C16.0306 25.6892 16.0801 26.0019 15.8462 26.9532L13.8412 35.6081H17.0879L18.5101 29.5708C19.0448 27.2619 19.4806 26.3885 19.7465 26.0679C20.0727 25.6958 20.4149 25.5151 20.8038 25.5151C20.9105 25.5152 21.0154 25.5419 21.1088 25.5926C21.2023 25.6434 21.2813 25.7165 21.3385 25.8053C21.3906 25.8739 21.5029 26.0692 21.674 26.6537C21.7722 26.952 21.9026 27.2391 22.063 27.5099C22.1577 27.648 22.279 27.7662 22.4201 27.8579C22.5612 27.9496 22.7191 28.0129 22.885 28.0443H22.9238C23.3702 28.072 23.7124 27.9532 23.9597 27.688C24.1936 27.4426 24.2952 27.0759 24.2685 26.6194Z" fill="#FFFFFB"/>
<path d="M33.2188 30.91C32.5879 32.1845 31.8139 33.1647 30.917 33.8284C30.1632 34.4063 29.3371 34.62 28.499 34.4881C27.4016 34.3033 26.9111 33.3231 27.0006 31.4958C27.7707 31.4253 28.5343 31.2978 29.285 31.1145C30.1008 30.9084 30.8924 30.6183 31.6469 30.249C32.3812 29.9056 33.027 29.4021 33.5356 28.7766C34.0358 28.1912 34.3187 27.4549 34.3376 26.6894C34.3723 25.7896 34.0221 25.089 33.3016 24.6074C32.6747 24.1668 31.8754 23.9478 30.9237 23.9478H30.7754C29.9676 23.9797 29.1728 24.1586 28.4308 24.4755C27.641 24.8026 26.9081 25.25 26.2588 25.8014C24.9007 27.0258 24.0559 28.4401 23.7498 30.0234C23.4224 31.6646 23.6376 33.042 24.3928 34.1226C25.2082 35.2414 26.4432 35.8087 28.0646 35.8087C29.3788 35.8323 30.661 35.4078 31.695 34.6068C32.6854 33.8152 33.5382 32.6555 34.2346 31.1554L34.4244 30.7477H33.295L33.2188 30.91ZM28.3894 26.9875C29.1099 25.8371 29.829 25.2222 30.5374 25.1629C30.5818 25.1575 30.6264 25.1549 30.6711 25.155C30.9224 25.155 31.2766 25.2394 31.453 25.9769C31.6402 26.7764 31.4664 27.6301 30.9411 28.5088C30.5577 29.1436 29.9707 29.6339 29.2729 29.902C28.569 30.1644 27.8334 30.3351 27.0848 30.4099C27.2857 29.1951 27.7291 28.0318 28.3894 26.9875Z" fill="#FFFFFB"/>
<path d="M43.1021 24.8288C42.5059 24.3011 41.72 24.0161 40.7669 23.9673C39.5893 23.9053 38.5548 24.1546 37.6926 24.7114C36.887 25.2097 36.2861 25.9734 35.9964 26.8672C35.5553 28.3462 35.967 29.5231 37.2341 30.3727C37.6178 30.601 38.0562 30.8411 38.5441 31.0931C39.6455 31.6288 39.997 31.8108 40.0919 31.8676C40.5611 32.1605 40.7215 32.3808 40.7803 32.5272C40.8546 32.6849 40.8944 32.8563 40.8972 33.0302C40.9 33.2041 40.8656 33.3766 40.7963 33.5365C40.7124 33.7513 40.5817 33.9453 40.4136 34.1049C40.2455 34.2644 40.044 34.3857 39.8233 34.4601C39.227 34.6673 38.5854 34.7129 37.9653 34.592C37.3678 34.4772 36.9548 34.3044 36.7463 34.0854C36.5962 33.9294 36.5125 33.7226 36.5123 33.5075C36.5361 33.2755 36.6085 33.0508 36.7249 32.8478C36.9167 32.581 37.0464 32.2755 37.1045 31.9533C37.1606 31.5272 37.0778 31.1973 36.8559 30.9744C36.7483 30.8556 36.617 30.7601 36.4703 30.6938C36.3235 30.6275 36.1644 30.5918 36.0031 30.5891C35.8177 30.5845 35.6333 30.6166 35.4606 30.6834C35.288 30.7503 35.1307 30.8505 34.9979 30.9783C34.6842 31.3034 34.4931 31.7249 34.4566 32.1723C34.3942 32.7182 34.4867 33.2705 34.7239 33.7674C34.979 34.2522 35.3396 34.6753 35.7799 35.0063C36.4843 35.534 37.448 35.7979 38.6457 35.7979H38.8047C39.838 35.7742 40.6694 35.5604 41.2749 35.1659C42.2707 34.5221 42.9377 33.6975 43.2545 32.7106C43.6862 31.3253 43.3881 30.2039 42.3896 29.3885C42.0942 29.1365 41.4299 28.7552 40.3619 28.2261C39.2672 27.6456 38.8274 27.3026 38.651 27.1179C38.4492 26.8171 38.4238 26.4688 38.5668 26.0624C38.7967 25.4964 39.3581 25.2022 40.2831 25.1613C40.6753 25.1254 41.0695 25.2043 41.4166 25.3882C41.5509 25.487 41.6406 25.6339 41.6665 25.7972C41.7071 26.015 41.7112 26.2378 41.6785 26.4569C41.6552 26.722 41.6737 26.989 41.7333 27.2485C41.8764 27.7881 42.276 28.085 42.8575 28.085H42.923C43.1657 28.0843 43.4011 28.0025 43.5909 27.8531C43.7807 27.7036 43.9137 27.4952 43.9682 27.2617C44.0542 26.8783 44.0455 26.4801 43.9428 26.1007C43.8006 25.602 43.5072 25.1582 43.1021 24.8288Z" fill="#FFFFFB"/>
<path d="M53.5775 24.4279C52.9746 24.1152 52.2181 23.9556 51.3252 23.9556C49.6372 23.9688 48.0157 24.6063 46.7806 25.742C45.4279 26.9294 44.5831 28.3543 44.2676 29.9837C43.9655 31.6368 44.1794 33.0182 44.9106 34.1001C45.7126 35.2123 46.9503 35.7756 48.573 35.7756C49.8799 35.7863 51.1511 35.3552 52.1753 34.5539C53.1979 33.7623 54.06 32.6079 54.7377 31.1236L54.9369 30.7146H53.802L53.7205 30.8742C53.0896 32.1131 52.3117 33.0868 51.4027 33.7768C50.7892 34.2637 50.1623 34.4998 49.4846 34.4998C49.3261 34.4995 49.1679 34.4868 49.0114 34.4616C48.7974 34.4332 48.5918 34.3611 48.4076 34.2498C48.2235 34.1385 48.0649 33.9904 47.9421 33.8151C47.4262 33.071 47.3607 31.7041 47.7496 29.762C47.8957 29.1332 48.1058 28.5206 48.3765 27.9334C48.7201 27.261 49.1669 26.6451 49.7012 26.1074C50.2746 25.5427 50.8868 25.2221 51.5391 25.1522C52.1352 25.0585 52.5549 25.1641 52.8169 25.4887C52.8892 25.5666 52.9427 25.6596 52.9735 25.7608C53.0043 25.862 53.0115 25.9688 52.9947 26.0731V26.0956C52.9746 26.3449 52.845 26.6893 52.6044 27.122C52.4931 27.3206 52.4172 27.5366 52.3798 27.7606C52.3598 27.9161 52.3718 28.074 52.4152 28.2248C52.4586 28.3756 52.5325 28.5161 52.6325 28.6379L52.6699 28.6775C52.8832 28.8708 53.1622 28.9781 53.4518 28.9783C53.4879 28.9783 53.5253 28.9783 53.5574 28.9783C53.7692 28.9619 53.9751 28.9011 54.1613 28.8001C54.3475 28.6991 54.5098 28.5602 54.6375 28.3925C54.9036 28.0365 55.0713 27.6182 55.124 27.1787C55.205 26.6155 55.083 26.042 54.7791 25.5586C54.5128 25.0635 54.0912 24.6668 53.5775 24.4279Z" fill="#FFFFFB"/>
<path d="M11.649 24.4279C11.0462 24.1152 10.291 23.9556 9.39674 23.9556C7.71114 23.9707 6.09232 24.608 4.85877 25.742C3.5074 26.9294 2.6613 28.3543 2.34584 29.9837C2.04376 31.6368 2.25896 33.0182 2.99011 34.1001C3.79211 35.2123 5.02986 35.7756 6.65123 35.7756C7.9581 35.7863 9.2293 35.3552 10.2535 34.5539C11.2761 33.7623 12.1382 32.6079 12.8173 31.1236L13.0031 30.7159H11.8669L11.7867 30.8756C11.1545 32.1144 10.3765 33.0881 9.46758 33.7781C8.85539 34.265 8.22716 34.5011 7.54947 34.5011C7.39097 34.5008 7.23275 34.488 7.07629 34.4629C6.86218 34.4349 6.65639 34.3629 6.4722 34.2515C6.28802 34.1402 6.12953 33.9919 6.00696 33.8164C5.48967 33.0723 5.42551 31.7054 5.81315 29.7634C5.96033 29.1347 6.17079 28.5221 6.44138 27.9347C6.78449 27.2621 7.23136 26.646 7.76601 26.1087C8.3381 25.5441 8.95163 25.2235 9.60258 25.1535C10.1987 25.0599 10.6184 25.1654 10.8818 25.49C10.9536 25.5682 11.0067 25.6613 11.0372 25.7624C11.0678 25.8636 11.0749 25.9702 11.0582 26.0744V26.0969C11.0395 26.3462 10.9085 26.6906 10.6679 27.1233C10.5572 27.3222 10.4813 27.5381 10.4433 27.7619C10.4231 27.9175 10.4352 28.0755 10.4789 28.2264C10.5226 28.3772 10.5969 28.5177 10.6973 28.6393L10.7334 28.6788C10.9468 28.8721 11.2258 28.9795 11.5154 28.9797C11.5514 28.9797 11.5902 28.9797 11.6209 28.9797C11.8329 28.9619 12.0386 28.8997 12.2244 28.7973C12.4102 28.695 12.5717 28.5547 12.6983 28.3859C12.9678 28.0332 13.1392 27.617 13.1955 27.1787C13.2763 26.6157 13.1547 26.0424 12.852 25.5586C12.5852 25.0634 12.1632 24.6667 11.649 24.4279Z" fill="#FFFFFB"/>
<path d="M64.9445 30.7486L64.8643 30.9095C64.2334 32.184 63.4608 33.1643 62.5626 33.828C61.8087 34.4058 60.9826 34.6262 60.1445 34.4876C59.0471 34.299 58.5566 33.3187 58.6475 31.4914C59.4175 31.4209 60.1811 31.2934 60.9318 31.1101C61.7476 30.904 62.5393 30.6139 63.2937 30.2446C64.0286 29.9015 64.6745 29.3975 65.1824 28.7709C65.6831 28.1863 65.9661 27.4502 65.9844 26.685C66.0192 25.7865 65.669 25.0846 64.9485 24.603C64.3229 24.1624 63.5223 23.9434 62.5706 23.9434H62.4222C61.6145 23.9753 60.8196 24.1543 60.0777 24.4711C59.2876 24.7977 58.5546 25.2452 57.9056 25.7971C56.5476 27.0201 55.7041 28.4358 55.3967 30.019C55.0706 31.6603 55.2858 33.0377 56.0396 34.1182C56.855 35.237 58.0901 35.8044 59.7128 35.8044C61.027 35.828 62.3092 35.4034 63.3432 34.6024C64.3323 33.8108 65.1851 32.6498 65.8828 31.151L66.0713 30.7433L64.9445 30.7486ZM60.0349 26.9871C60.7554 25.8366 61.4759 25.2218 62.1829 25.1624C62.2273 25.1571 62.2719 25.1545 62.3166 25.1545C62.5679 25.1545 62.9221 25.239 63.0986 25.9765C63.2857 26.776 63.1119 27.6296 62.5866 28.5083C62.2027 29.1401 61.6189 29.6297 60.9251 29.9016C60.2212 30.1639 59.4857 30.3347 58.737 30.4095C58.9352 29.195 59.3765 28.0316 60.0349 26.9871Z" fill="#FFFFFB"/>
<path d="M76.4771 26.6181C76.4602 26.1387 76.3028 25.6745 76.024 25.2816C75.6762 24.8097 75.1949 24.4499 74.6405 24.2472C74.0709 24.0209 73.4441 23.9748 72.8467 24.1153C72.4497 24.2029 72.0747 24.3691 71.7446 24.6038C71.4144 24.8385 71.1359 25.1368 70.9259 25.4808C70.856 25.1402 70.6939 24.8247 70.4568 24.5678C70.132 24.2327 69.6748 24.0638 69.1027 24.0638H69.056C67.4105 24.0638 66.4134 25.3357 66.0912 27.8438L66.0498 28.1683H67.1646L67.2154 27.9427C67.7033 25.7764 68.1337 25.6114 68.2165 25.6009C68.2446 25.684 68.2927 25.9967 68.0601 26.9479L66.0551 35.6029H69.3019L70.7241 29.5655C71.2588 27.2567 71.6945 26.3833 71.9619 26.0627C72.288 25.6906 72.6302 25.5098 73.0192 25.5098C73.1258 25.5098 73.2308 25.5363 73.3243 25.5871C73.4178 25.6378 73.4968 25.7111 73.5538 25.8001C73.6059 25.8687 73.7182 26.064 73.8893 26.6485C73.9884 26.9467 74.1192 27.2337 74.2796 27.5047C74.3741 27.643 74.4953 27.7614 74.6364 27.8531C74.7775 27.9449 74.9357 28.008 75.1017 28.0391H75.1391C75.5855 28.0668 75.9264 27.9493 76.1763 27.6828C76.4036 27.4427 76.5052 27.0759 76.4771 26.6181Z" fill="#FFFFFB"/>
<path d="M22.1792 6.11932V16.9525C22.179 17.0443 22.1972 17.1352 22.2326 17.22C22.2681 17.3049 22.3202 17.382 22.3858 17.4469C22.4515 17.5119 22.5295 17.5634 22.6154 17.5985C22.7013 17.6337 22.7933 17.6518 22.8863 17.6518H28.3746C28.4676 17.6518 28.5597 17.6337 28.6455 17.5985C28.7314 17.5634 28.8094 17.5119 28.8751 17.4469C28.9408 17.382 28.9928 17.3049 29.0283 17.22C29.0637 17.1352 29.0819 17.0443 29.0817 16.9525V12.2345H39.35C39.4428 12.2345 39.5348 12.2165 39.6206 12.1814C39.7064 12.1463 39.7843 12.0949 39.85 12.0301C39.9156 11.9653 39.9677 11.8884 40.0032 11.8037C40.0388 11.719 40.0571 11.6282 40.0571 11.5366V6.11932C40.0571 6.02767 40.0388 5.93691 40.0032 5.85224C39.9677 5.76756 39.9156 5.69062 39.85 5.62581C39.7843 5.561 39.7064 5.50959 39.6206 5.47451C39.5348 5.43944 39.4428 5.42139 39.35 5.42139H22.8863C22.6988 5.42139 22.5189 5.49492 22.3863 5.62581C22.2537 5.7567 22.1792 5.93422 22.1792 6.11932Z" fill="#424143"/>
<path d="M38.6429 6.81689V10.837H28.3746C28.2817 10.837 28.1896 10.8551 28.1037 10.8902C28.0179 10.9254 27.9398 10.9769 27.8742 11.0419C27.8085 11.1068 27.7564 11.1839 27.721 11.2687C27.6855 11.3536 27.6674 11.4445 27.6675 11.5362V16.2542H23.5934V6.81689H38.6429Z" fill="#8DC63F"/>
<path d="M55.8083 1.26846e-06H50.32C50.1325 1.26846e-06 49.9526 0.0735338 49.82 0.204423C49.6874 0.335311 49.6129 0.512834 49.6129 0.697939V5.42122H44.833C44.74 5.42105 44.6479 5.43897 44.562 5.47397C44.4761 5.50897 44.3979 5.56035 44.3321 5.62518C44.2663 5.69 44.2141 5.767 44.1785 5.85177C44.1429 5.93653 44.1246 6.0274 44.1246 6.11916V10.8372H28.368C28.275 10.8372 28.183 10.8553 28.0971 10.8904C28.0112 10.9256 27.9332 10.9771 27.8675 11.0421C27.8018 11.107 27.7498 11.1841 27.7143 11.2689C27.6789 11.3538 27.6607 11.4447 27.6609 11.5364V16.9524C27.6607 17.0441 27.6789 17.135 27.7143 17.2199C27.7498 17.3047 27.8018 17.3818 27.8675 17.4467C27.9332 17.5117 28.0112 17.5632 28.0971 17.5984C28.183 17.6335 28.275 17.6516 28.368 17.6516H55.8083C55.9014 17.6516 55.9935 17.6335 56.0794 17.5984C56.1654 17.5633 56.2435 17.5118 56.3093 17.4468C56.3751 17.3819 56.4272 17.3048 56.4628 17.22C56.4984 17.1351 56.5168 17.0442 56.5168 16.9524V0.701897C56.5173 0.609799 56.4994 0.518508 56.464 0.433287C56.4286 0.348065 56.3765 0.270598 56.3106 0.205352C56.2448 0.140105 56.1665 0.0883683 56.0803 0.0531242C55.9941 0.0178802 55.9016 -0.000174315 55.8083 1.26846e-06Z" fill="#424143"/>
<path d="M49.6142 12.2344H29.0764V16.2544H49.6142V12.2344Z" fill="#27A9E1"/>
<path d="M55.1013 16.2542H51.0285V11.5361C51.0285 11.3507 50.9539 11.1728 50.821 11.0417C50.6881 10.9106 50.508 10.8369 50.3201 10.8369H45.5402V6.81814H50.3201C50.508 6.81814 50.6881 6.74447 50.821 6.61333C50.9539 6.4822 51.0285 6.30434 51.0285 6.11889V1.40088H55.1013V16.2542Z" fill="#F7941D"/>
<path fill-rule="evenodd" clip-rule="evenodd" d="M89.4696 28.8424H88.1075C87.9086 28.8828 87.7035 28.8828 87.5047 28.8424H86.176C85.8945 28.8422 85.6183 28.9185 85.3778 29.0631C85.1373 29.2076 84.9417 29.4147 84.8126 29.6617C84.6834 29.4148 84.4878 29.2078 84.2473 29.0633C84.0069 28.9188 83.7308 28.8423 83.4492 28.8424H81.9134C81.6458 28.8424 81.3828 28.9116 81.1506 29.0431C80.9185 29.1745 80.7252 29.3637 80.5901 29.5917C80.4548 29.3636 80.2613 29.1744 80.0289 29.0429C79.7965 28.9114 79.5333 28.8423 79.2655 28.8424H77.8847C77.8406 28.8424 77.7978 28.8424 77.751 28.8503C77.6995 28.845 77.6478 28.8424 77.596 28.8424H75.4426C75.1562 28.841 74.87 28.8582 74.5858 28.8938C74.2464 28.9393 73.9121 29.0161 73.5873 29.1234C73.1151 29.274 72.6859 29.5331 72.3349 29.8794C72.1083 30.0976 71.9053 30.3386 71.7294 30.5984C71.725 30.6036 71.7214 30.6094 71.7187 30.6156C71.5606 30.8649 71.4302 31.1303 71.3297 31.4072C71.2351 31.6636 71.1574 31.9258 71.0971 32.1922V32.212C71.0307 32.528 70.9972 32.8498 70.9969 33.1725V33.5379C70.994 34.1624 71.0961 34.783 71.299 35.3745C71.5328 36.0442 71.9456 36.6391 72.4939 37.0962L72.5728 37.1582C72.9965 37.4809 73.4821 37.7152 74.0004 37.8469C74.4642 37.954 74.9396 38.0045 75.4159 37.9973H77.6C77.823 37.9973 78.0433 37.9492 78.2455 37.8565C78.4477 37.7637 78.627 37.6285 78.7709 37.4604C78.9138 37.6273 79.0916 37.7617 79.2921 37.8544C79.4926 37.9471 79.7111 37.9959 79.9325 37.9973H81.5191C81.7603 37.9976 81.9982 37.9415 82.2133 37.8338C82.4284 37.726 82.6146 37.5696 82.7568 37.3773C82.8996 37.5694 83.0861 37.7256 83.3014 37.8334C83.5166 37.9411 83.7546 37.9973 83.9959 37.9973H85.5999C85.8449 37.9975 86.0863 37.9397 86.304 37.8289C86.5216 37.718 86.7092 37.5572 86.851 37.3601C86.9926 37.5571 87.18 37.7178 87.3974 37.8287C87.6149 37.9396 87.8561 37.9974 88.1008 37.9973H89.4629C89.8698 37.9973 90.2601 37.8378 90.5479 37.5537C90.8357 37.2697 90.9974 36.8844 90.9974 36.4827V30.3609C90.9984 29.9597 90.8381 29.5744 90.5517 29.2897C90.2653 29.005 89.8761 28.8441 89.4696 28.8424Z" fill="#424143"/>
<path fill-rule="evenodd" clip-rule="evenodd" d="M77.6 30.357V31.4006H75.4613C75.1373 31.3821 74.817 31.4754 74.555 31.6645C74.3515 31.8136 74.2009 32.0223 74.1246 32.2608C74.0667 32.4587 74.022 32.6601 73.991 32.8638C73.9624 33.0458 73.9477 33.2297 73.9469 33.4139V33.6184C73.9469 33.6976 73.9469 33.786 73.9562 33.8823C73.9656 33.9786 73.9723 34.0895 73.991 34.2227C74.0113 34.3703 74.0503 34.5148 74.1073 34.6528C74.1678 34.8069 74.2531 34.9504 74.3599 35.0776C74.4841 35.2136 74.6465 35.31 74.8264 35.3547C75.0384 35.3965 75.2545 35.4155 75.4707 35.4114H77.6093V36.4748H75.4159C75.0621 36.4811 74.7089 36.4452 74.3639 36.368C74.0459 36.2855 73.7484 36.1396 73.4897 35.9392C73.1487 35.6574 72.8918 35.2894 72.7465 34.8745C72.5982 34.441 72.5241 33.9862 72.5273 33.5287V33.1633C72.5272 32.9452 72.5496 32.7277 72.5942 32.5141C72.6399 32.3125 72.698 32.1138 72.7679 31.9191C72.8305 31.7466 72.9116 31.5812 73.0099 31.4257C73.1274 31.2539 73.2617 31.0939 73.4109 30.9481C73.5923 30.77 73.8141 30.6371 74.0578 30.5602C74.2894 30.4827 74.5279 30.4275 74.7702 30.3953C74.9918 30.3665 75.2151 30.3524 75.4386 30.353L77.6 30.357Z" fill="#FBB041"/>
<path fill-rule="evenodd" clip-rule="evenodd" d="M81.5244 36.48H79.9378L77.8846 30.3569H79.2654L80.6956 35.0657L81.9133 30.3569H83.4492L84.846 35.0657L86.176 30.3569H87.5046L85.6065 36.48H84.0012L82.6899 31.923L81.5244 36.48Z" fill="#FBB041"/>
<path fill-rule="evenodd" clip-rule="evenodd" d="M88.1074 30.3569H89.4695V36.48H88.1074V30.3569Z" fill="#FBB041"/>
</g>
<defs>
<clipPath id="clip0">
<rect width="91" height="38" fill="white"/>
</clipPath>
</defs>
</svg>
