<svg width="63" height="63" viewBox="0 0 63 63" fill="none" xmlns="http://www.w3.org/2000/svg">
<path d="M41.3428 19.7894C41.198 19.344 40.8127 19.0195 40.3493 18.9522L34.9964 18.1758L32.6013 13.326C32.3938 12.9062 31.9662 12.6404 31.498 12.6404H31.4978C31.0294 12.6405 30.6018 12.9065 30.3946 13.3266L28.0021 18.1776L22.6496 18.9569C22.186 19.0243 21.8012 19.3492 21.6566 19.7946C21.512 20.24 21.6328 20.729 21.9683 21.0559L25.8425 24.8303L24.9296 30.1616C24.8505 30.6233 25.0405 31.0898 25.4195 31.365C25.6338 31.5207 25.8876 31.5998 26.1425 31.5998C26.3384 31.5998 26.5352 31.553 26.7153 31.4583L31.5022 28.94L36.2905 31.4557C36.705 31.6736 37.2074 31.6372 37.5863 31.3617C37.9652 31.0863 38.1548 30.6197 38.0756 30.1582L37.1598 24.8274L41.0321 21.0509C41.3672 20.7239 41.4877 20.2349 41.3428 19.7894ZM34.9783 23.5173C34.6884 23.8001 34.5561 24.2073 34.6247 24.6065L35.2279 28.1177L32.074 26.4607C31.7156 26.2723 31.2873 26.2725 30.9288 26.461L27.7759 28.1196L28.3772 24.6081C28.4456 24.2089 28.3131 23.8017 28.0231 23.519L25.4713 21.033L28.9967 20.5197C29.3975 20.4614 29.7439 20.2095 29.923 19.8464L31.4988 16.6514L33.0764 19.8457C33.2558 20.2088 33.6023 20.4604 34.003 20.5185L37.5287 21.0299L34.9783 23.5173Z" fill="black"/>
<path d="M59.1537 54.063L48.9831 36.3725C52.0545 32.5386 53.8947 27.6778 53.8947 22.3947C53.8947 10.0462 43.8485 0 31.5 0C19.1516 0 9.10537 10.0462 9.10537 22.3947C9.10537 27.6778 10.9454 32.5386 14.0169 36.3725L3.84632 54.063C3.61278 54.4694 3.63025 54.9731 3.89148 55.3623C4.15271 55.7514 4.61278 55.9584 5.0768 55.896L13.015 54.83L16.0609 62.2376C16.2393 62.6713 16.6488 62.966 17.1169 62.9973C17.1444 62.9991 17.1719 63 17.1992 63C17.6366 63 18.0438 62.7671 18.2645 62.3848L28.532 44.6011C28.5336 44.5984 28.5347 44.5955 28.5363 44.5927C29.5064 44.7215 30.4955 44.7892 31.5003 44.7892C32.5051 44.7892 33.4941 44.7215 34.4643 44.5927C34.4659 44.5954 34.467 44.5982 34.4686 44.6011L44.736 62.3848C44.9568 62.7671 45.3641 63 45.8014 63C45.8287 63 45.8561 62.9991 45.8837 62.9973C46.3518 62.966 46.7613 62.6713 46.9397 62.2376L49.9857 54.83L57.9239 55.896C58.3889 55.9584 58.848 55.7514 59.1092 55.3623C59.3697 54.9731 59.3873 54.4694 59.1537 54.063ZM17.3848 58.9864L15.1674 53.5942L17.1572 50.3471C17.5124 49.7677 17.3305 49.0101 16.7511 48.6551C16.1716 48.3001 15.414 48.4819 15.059 49.0613L13.0483 52.3425L7.22447 53.1244L15.7487 38.2977C18.5409 41.0634 22.0547 43.1015 25.9794 44.1001L17.3848 58.9864ZM31.4999 42.3284C20.5084 42.3284 11.5662 33.3861 11.5662 22.3947C11.5662 11.4032 20.5084 2.46095 31.4999 2.46095C42.4914 2.46095 51.4336 11.4032 51.4336 22.3947C51.4336 33.3861 42.4914 42.3284 31.4999 42.3284ZM49.9516 52.3425L47.9409 49.0613C47.5859 48.4819 46.8283 48.2999 46.2489 48.6551C45.6695 49.0102 45.4876 49.7677 45.8427 50.3471L47.8325 53.5942L45.6152 58.9864L37.0206 44.1001C40.9453 43.1015 44.4592 41.0634 47.2512 38.2977L55.7755 53.1244L49.9516 52.3425Z" fill="black"/>
<path d="M31.4998 6.39844C28.7538 6.39844 26.0447 7.10621 23.6651 8.44546C23.0729 8.77867 22.8629 9.52901 23.1962 10.1212C23.5294 10.7135 24.2797 10.9236 24.8719 10.5902C26.8839 9.45789 29.1758 8.85939 31.4998 8.85939C38.9631 8.85939 45.035 14.9313 45.035 22.3946C45.035 24.434 44.5931 26.3935 43.7217 28.2187C43.429 28.832 43.6887 29.5665 44.302 29.8593C44.4732 29.941 44.6536 29.9796 44.8314 29.9796C45.2906 29.9796 45.7315 29.7211 45.9426 29.279C46.9733 27.1201 47.496 24.8039 47.496 22.3946C47.496 13.5743 40.3202 6.39844 31.4998 6.39844Z" fill="black"/>
<path d="M42.9498 31.7982C42.4622 31.325 41.6832 31.3367 41.2099 31.8243L41.1826 31.8524C40.7079 32.3385 40.7171 33.1177 41.2033 33.5924C41.4426 33.8261 41.7528 33.9425 42.0628 33.9425C42.3826 33.9425 42.7022 33.8186 42.9433 33.5716L42.9758 33.5383C43.4491 33.0506 43.4374 32.2716 42.9498 31.7982Z" fill="black"/>
<path d="M39.6933 34.7418C39.3654 34.1467 38.617 33.93 38.0219 34.258C36.037 35.3518 33.7816 35.9299 31.4997 35.9299C24.0364 35.9299 17.9645 29.858 17.9645 22.3946C17.9645 20.4395 18.3719 18.5539 19.1753 16.7903C19.4571 16.1719 19.184 15.4422 18.5656 15.1604C17.9471 14.8788 17.2175 15.1517 16.9357 15.7701C15.9853 17.8563 15.5034 20.085 15.5034 22.3946C15.5034 31.2149 22.6793 38.3908 31.4996 38.3908C34.1957 38.3908 36.8618 37.707 39.2095 36.4133C39.8047 36.0853 40.0214 35.337 39.6933 34.7418Z" fill="black"/>
<path d="M21.5333 11.4309C21.0361 10.9677 20.2574 10.9955 19.7943 11.4926L19.767 11.522C19.3055 12.0208 19.3357 12.7993 19.8345 13.2608C20.0711 13.4798 20.3707 13.5881 20.6698 13.5881C21.0007 13.5881 21.3308 13.4553 21.5733 13.1932L21.5949 13.17C22.0581 12.6727 22.0305 11.8941 21.5333 11.4309Z" fill="black"/>
</svg>
