<svg width="26" height="26" viewBox="0 0 26 26" fill="none" xmlns="http://www.w3.org/2000/svg">
<path d="M18.4578 0H7.54213C6.49 0 5.6333 0.8567 5.6333 1.90883V24.0907C5.6333 25.1433 6.49 26 7.54213 26H18.4574C19.5099 26 20.3666 25.1433 20.3666 24.0912V1.90883C20.3666 0.8567 19.5099 0 18.4578 0ZM6.49997 3.46667H19.5V19.9333H6.49997V3.46667ZM7.54213 0.866667H18.4574C19.0324 0.866667 19.5 1.33423 19.5 1.90883V2.6H6.49997V1.90883C6.49997 1.33423 6.96753 0.866667 7.54213 0.866667ZM18.4578 25.1333H7.54213C6.96753 25.1333 6.49997 24.6658 6.49997 24.0912V20.8H19.5V24.0912C19.5 24.6658 19.0324 25.1333 18.4578 25.1333Z" fill="white"/>
<path d="M13.0002 21.2333C12.0442 21.2333 11.2668 22.0107 11.2668 22.9667C11.2668 23.9226 12.0442 24.7 13.0002 24.7C13.9561 24.7 14.7335 23.9226 14.7335 22.9667C14.7335 22.0107 13.9561 21.2333 13.0002 21.2333ZM13.0002 23.8333C12.5222 23.8333 12.1335 23.4446 12.1335 22.9667C12.1335 22.4887 12.5222 22.1 13.0002 22.1C13.4781 22.1 13.8668 22.4887 13.8668 22.9667C13.8668 23.4446 13.4781 23.8333 13.0002 23.8333Z" fill="white"/>
<path d="M11.2668 2.16665H13.0002C13.2398 2.16665 13.4335 1.97295 13.4335 1.73332C13.4335 1.49369 13.2398 1.29999 13.0002 1.29999H11.2668C11.0272 1.29999 10.8335 1.49369 10.8335 1.73332C10.8335 1.97295 11.0272 2.16665 11.2668 2.16665Z" fill="white"/>
<path d="M14.3 2.16665H14.7334C14.973 2.16665 15.1667 1.97295 15.1667 1.73332C15.1667 1.49369 14.973 1.29999 14.7334 1.29999H14.3C14.0604 1.29999 13.8667 1.49369 13.8667 1.73332C13.8667 1.97295 14.0604 2.16665 14.3 2.16665Z" fill="white"/>
<path d="M24.5318 1.97992C24.3624 1.81049 24.0885 1.81049 23.9191 1.97992C23.7496 2.14935 23.7496 2.42322 23.9191 2.59265C25.538 4.21159 25.538 6.84582 23.9191 8.46519C23.7496 8.63462 23.7496 8.90849 23.9191 9.07792C24.0036 9.16242 24.1145 9.20489 24.2254 9.20489C24.3364 9.20489 24.4473 9.16242 24.5318 9.07792C26.4887 7.12142 26.4887 3.93685 24.5318 1.97992Z" fill="white"/>
<path d="M22.7071 2.96619C22.5377 2.79675 22.2638 2.79675 22.0944 2.96619C21.9249 3.13562 21.9249 3.40949 22.0944 3.57892C22.6304 4.11495 22.9255 4.82909 22.9255 5.58915C22.9255 6.34922 22.6304 7.06292 22.0944 7.59895C21.9249 7.76839 21.9249 8.04225 22.0944 8.21169C22.1789 8.29619 22.2898 8.33865 22.4007 8.33865C22.5117 8.33865 22.6226 8.29619 22.7071 8.21169C23.4069 7.51229 23.7922 6.58062 23.7922 5.58915C23.7922 4.59769 23.4074 3.66559 22.7071 2.96619Z" fill="white"/>
<path d="M2.08092 2.59265C2.25036 2.42322 2.25036 2.14935 2.08092 1.97992C1.91149 1.81049 1.63762 1.81049 1.46819 1.97992C-0.488745 3.93685 -0.488745 7.12099 1.46819 9.07792C1.55269 9.16242 1.66362 9.20489 1.77455 9.20489C1.88549 9.20489 1.99642 9.16242 2.08092 9.07792C2.25036 8.90849 2.25036 8.63462 2.08092 8.46519C0.461555 6.84625 0.461555 4.21202 2.08092 2.59265Z" fill="white"/>
<path d="M3.90556 2.84656C3.73613 2.67712 3.46226 2.67712 3.29283 2.84656C2.593 3.54596 2.20776 4.47762 2.20776 5.46909C2.20776 6.46056 2.593 7.39222 3.29283 8.09206C3.37733 8.17656 3.48826 8.21902 3.5992 8.21902C3.71013 8.21902 3.82106 8.17656 3.90556 8.09206C4.075 7.92262 4.075 7.64876 3.90556 7.47932C3.36953 6.94329 3.07443 6.22916 3.07443 5.46909C3.07443 4.70902 3.3691 3.99532 3.90556 3.45929C4.07456 3.29029 4.07456 3.01599 3.90556 2.84656Z" fill="white"/>
</svg>
