<svg width="29" height="29" viewBox="0 0 29 29" fill="none" xmlns="http://www.w3.org/2000/svg">
<path d="M14.5 0C9.32445 0 5.11377 4.21068 5.11377 9.38625C5.11377 14.0147 8.32416 20.0814 11.0174 24.3558C11.1911 24.6316 11.5554 24.7143 11.8313 24.5405C12.107 24.3668 12.1897 24.0024 12.0159 23.7267C7.28678 16.2208 6.29416 11.7854 6.29416 9.38625C6.29416 4.86151 9.97528 1.18029 14.5001 1.18029C19.025 1.18029 22.7061 4.86141 22.7061 9.38625C22.7061 16.7343 14.1199 27.9369 14.0331 28.0491C13.8339 28.3071 13.8815 28.6777 14.1394 28.8769C14.2469 28.9599 14.3738 29 14.4998 29C14.6763 29 14.851 28.9211 14.9672 28.7706C15.3314 28.2993 23.8865 17.1372 23.8865 9.38615C23.8863 4.21068 19.6757 0 14.5 0Z" fill="white"/>
<path d="M14.5 6.39324C14.8258 6.39324 15.0901 6.12895 15.0901 5.8031C15.0901 5.47724 14.8258 5.21295 14.5 5.21295C12.1988 5.21295 10.3267 7.08509 10.3267 9.38626C10.3267 11.6874 12.1988 13.5596 14.5 13.5596C16.8011 13.5596 18.6733 11.6874 18.6733 9.38626C18.6733 8.46721 18.3803 7.59537 17.8257 6.86486C17.6287 6.6053 17.2585 6.55465 16.9988 6.75166C16.7393 6.94867 16.6885 7.31888 16.8856 7.57855C17.283 8.10191 17.493 8.72707 17.493 9.38626C17.493 11.0366 16.1503 12.3793 14.5 12.3793C12.8496 12.3793 11.5069 11.0366 11.5069 9.38626C11.5069 7.73592 12.8497 6.39324 14.5 6.39324Z" fill="white"/>
</svg>
