<svg width="48" height="48" viewBox="0 0 48 48" fill="none" xmlns="http://www.w3.org/2000/svg">
<path d="M47.0437 13.1196H16.0604C15.5323 13.1196 15.1043 13.5476 15.1043 14.0757V15.879H5.99082C5.46273 15.879 5.03467 16.3071 5.03467 16.8352C5.03467 17.3633 5.46273 17.7913 5.99082 17.7913H15.1043V30.2087H9.65729C9.1292 30.2087 8.70114 30.6367 8.70114 31.1648C8.70114 31.6929 9.1292 32.121 9.65729 32.121H15.1043V33.9243C15.1043 34.4524 15.5323 34.8804 16.0604 34.8804H47.0437C47.5718 34.8804 47.9999 34.4524 47.9999 33.9243V14.0757C47.9999 13.5476 47.5718 13.1196 47.0437 13.1196ZM44.685 15.0319L31.5534 25.8117L18.4818 15.0319H44.685ZM46.0876 32.9682H17.0167V16.3023L30.9438 27.7876C31.1204 27.9332 31.3362 28.0061 31.5521 28.0061C31.7673 28.0061 31.9825 27.9337 32.1588 27.789L46.0876 16.3547V32.9682Z" fill="#2080F6"/>
<path d="M11.2193 22.947H0.956156C0.428063 22.947 0 23.3751 0 23.9032C0 24.4313 0.428063 24.8593 0.956156 24.8593H11.2193C11.7474 24.8593 12.1755 24.4313 12.1755 23.9032C12.1756 23.3751 11.7474 22.947 11.2193 22.947Z" fill="#2080F6"/>
<path d="M6.5021 30.2087H5.99107C5.46297 30.2087 5.03491 30.6368 5.03491 31.1649C5.03491 31.693 5.46297 32.121 5.99107 32.121H6.5021C7.03019 32.121 7.45826 31.693 7.45826 31.1649C7.45826 30.6368 7.03019 30.2087 6.5021 30.2087Z" fill="#2080F6"/>
</svg>
