<svg width="34" height="34" viewBox="0 0 34 34" fill="none" xmlns="http://www.w3.org/2000/svg">
<g clip-path="url(#clip0)">
<path d="M33.3228 9.29303H11.3763C11.0022 9.29303 10.699 9.59624 10.699 9.97031V11.2476H4.24368C3.86962 11.2476 3.56641 11.5508 3.56641 11.9249C3.56641 12.299 3.86962 12.6022 4.24368 12.6022H10.699V21.3978H6.84076C6.4667 21.3978 6.16349 21.701 6.16349 22.0751C6.16349 22.4492 6.4667 22.7524 6.84076 22.7524H10.699V24.0297C10.699 24.4038 11.0022 24.707 11.3763 24.707H33.3228C33.6969 24.707 34.0001 24.4038 34.0001 24.0297V9.97031C34.0001 9.59624 33.6969 9.29303 33.3228 9.29303ZM31.6521 10.6476L22.3505 18.2833L13.0915 10.6476H31.6521ZM32.6456 23.3525H12.0537V11.5475L21.9187 19.6829C22.0438 19.786 22.1967 19.8377 22.3496 19.8377C22.502 19.8377 22.6545 19.7864 22.7793 19.6839L32.6456 11.5846V23.3525Z" fill="white"/>
<path d="M7.94703 16.2541H0.677277C0.303211 16.2541 0 16.5573 0 16.9314C0 17.3054 0.303211 17.6086 0.677277 17.6086H7.94703C8.3211 17.6086 8.62431 17.3054 8.62431 16.9314C8.62438 16.5573 8.3211 16.2541 7.94703 16.2541Z" fill="white"/>
<path d="M4.60566 21.3979H4.24368C3.86962 21.3979 3.56641 21.7011 3.56641 22.0752C3.56641 22.4492 3.86962 22.7524 4.24368 22.7524H4.60566C4.97973 22.7524 5.28294 22.4492 5.28294 22.0752C5.28294 21.7011 4.97973 21.3979 4.60566 21.3979Z" fill="white"/>
</g>
<defs>
<clipPath id="clip0">
<rect width="34" height="34" fill="white"/>
</clipPath>
</defs>
</svg>
