<svg width="39" height="39" viewBox="0 0 39 39" fill="none" xmlns="http://www.w3.org/2000/svg">
<g clip-path="url(#clip0)">
<path d="M32.5588 5.6004C28.9564 1.98887 24.1669 0 19.0725 0C13.978 0 9.18853 1.98887 5.58615 5.6004C1.98391 9.21186 0 14.0135 0 19.1209C0 24.2282 1.98391 29.0299 5.58615 32.6414C9.18853 36.2529 13.978 38.2418 19.0725 38.2418C24.1669 38.2418 28.9564 36.2529 32.5588 32.6414C36.161 29.0299 38.1449 24.2282 38.1449 19.1209C38.1449 14.0135 36.161 9.21186 32.5588 5.6004ZM19.0725 36.7479C9.37747 36.7479 1.49004 28.8405 1.49004 19.1209C1.49004 9.40127 9.37747 1.49382 19.0725 1.49382C28.7675 1.49382 36.6549 9.40127 36.6549 19.1209C36.6549 28.8405 28.7675 36.7479 19.0725 36.7479Z" fill="#217BEA"/>
<path d="M34.8745 16.0551C33.8702 10.8234 30.3516 6.43262 25.462 4.30975C25.0845 4.1458 24.6458 4.31983 24.4823 4.69829C24.3188 5.07683 24.4923 5.51661 24.8699 5.68048C29.3072 7.60698 32.5002 11.5908 33.4113 16.3374C33.4799 16.6948 33.792 16.9433 34.1421 16.9433C34.1888 16.9433 34.2361 16.9389 34.2836 16.9297C34.6876 16.8518 34.9522 16.4602 34.8745 16.0551Z" fill="#217BEA"/>
<path d="M22.5316 3.36152L22.5121 3.35726C22.1101 3.27032 21.7135 3.52681 21.6269 3.93014C21.5403 4.3334 21.7961 4.73068 22.1983 4.81754L22.2071 4.81948C22.2617 4.83173 22.3163 4.83756 22.3701 4.83756C22.7113 4.83756 23.0191 4.60094 23.0965 4.25318C23.1861 3.85052 22.9332 3.45137 22.5316 3.36152Z" fill="#217BEA"/>
<path d="M13.4433 32.6334C8.91458 30.7348 5.65863 26.724 4.73354 21.9046C4.65583 21.4995 4.26574 21.2339 3.8612 21.3123C3.4571 21.3902 3.19262 21.7818 3.27032 22.1868C3.77179 24.7989 4.92933 27.272 6.61806 29.3384C8.28727 31.3811 10.4486 32.9969 12.8685 34.0115C12.9623 34.0508 13.0598 34.0695 13.1556 34.0695C13.447 34.0695 13.7237 33.897 13.8432 33.6105C14.0019 33.23 13.8229 32.7924 13.4433 32.6334Z" fill="#217BEA"/>
<path d="M15.9482 33.4246L15.9022 33.4144C15.5009 33.325 15.1026 33.5788 15.0133 33.9815C14.9241 34.3841 15.1773 34.7831 15.579 34.8726L15.6312 34.8841C15.6846 34.8958 15.7379 34.9014 15.7904 34.9014C16.1332 34.9014 16.4417 34.6627 16.5177 34.3133C16.6052 33.9102 16.3503 33.5123 15.9482 33.4246Z" fill="#217BEA"/>
<path d="M34.2264 21.6823C33.8249 21.5944 33.4276 21.8501 33.3399 22.2531C32.096 27.9763 27.5855 32.3896 21.8489 33.4963C21.4448 33.5742 21.1803 33.9658 21.2581 34.3708C21.3267 34.7282 21.6388 34.9767 21.9889 34.9767C22.0356 34.9767 22.083 34.9723 22.1305 34.9631C25.2224 34.3667 28.0535 32.8792 30.3175 30.6616C32.5781 28.4474 34.1267 25.6498 34.7958 22.5711C34.8833 22.1681 34.6284 21.7702 34.2264 21.6823Z" fill="#217BEA"/>
<path d="M16.8867 3.87114C16.809 3.46609 16.4184 3.20049 16.0143 3.27884C12.9223 3.87532 10.0913 5.36279 7.82723 7.58037C5.5667 9.79458 4.0181 12.5922 3.349 15.6709C3.26146 16.0739 3.51634 16.4718 3.91835 16.5596C3.97176 16.5713 4.02518 16.5769 4.07771 16.5769C4.42049 16.5769 4.729 16.3383 4.80492 15.9889C6.04888 10.2656 10.5594 5.85239 16.2959 4.7457C16.7 4.66779 16.9644 4.27619 16.8867 3.87114Z" fill="#217BEA"/>
<path d="M19.0725 16.5813C17.6757 16.5813 16.5394 17.7205 16.5394 19.1208C16.5394 20.5211 17.6757 21.6603 19.0725 21.6603C20.4693 21.6603 21.6056 20.5211 21.6056 19.1208C21.6056 17.7205 20.4693 16.5813 19.0725 16.5813ZM19.0725 20.1665C18.4973 20.1665 18.0295 19.6974 18.0295 19.1208C18.0295 18.5442 18.4973 18.0751 19.0725 18.0751C19.6476 18.0751 20.1155 18.5442 20.1155 19.1208C20.1155 19.6974 19.6476 20.1665 19.0725 20.1665Z" fill="#217BEA"/>
<path d="M19.0838 2.98755C18.6724 2.98755 18.3388 3.32194 18.3388 3.73446V5.40813C18.3388 5.82065 18.6724 6.15504 19.0838 6.15504C19.4953 6.15504 19.8288 5.82065 19.8288 5.40813V3.73446C19.8288 3.32194 19.4952 2.98755 19.0838 2.98755Z" fill="#217BEA"/>
<path d="M19.0611 31.5542C18.6497 31.5542 18.3161 31.8886 18.3161 32.3011V34.5072C18.3161 34.9197 18.6497 35.2541 19.0611 35.2541C19.4725 35.2541 19.8061 34.9197 19.8061 34.5072V32.3011C19.8061 31.8886 19.4725 31.5542 19.0611 31.5542Z" fill="#217BEA"/>
<path d="M34.4198 18.3853H32.4083C31.9969 18.3853 31.6633 18.7196 31.6633 19.1322C31.6633 19.5447 31.9969 19.8791 32.4083 19.8791H34.4198C34.8312 19.8791 35.1649 19.5447 35.1649 19.1322C35.1649 18.7196 34.8312 18.3853 34.4198 18.3853Z" fill="#217BEA"/>
<path d="M5.88567 18.3628H3.72512C3.31372 18.3628 2.9801 18.6972 2.9801 19.1097C2.9801 19.5222 3.31372 19.8566 3.72512 19.8566H5.88567C6.29707 19.8566 6.63069 19.5222 6.63069 19.1097C6.63069 18.6972 6.29707 18.3628 5.88567 18.3628Z" fill="#217BEA"/>
<path d="M17.2844 18.374H13.8822C13.4708 18.374 13.1371 18.7084 13.1371 19.1209C13.1371 19.5335 13.4708 19.8678 13.8822 19.8678H17.2844C17.6958 19.8678 18.0295 19.5335 18.0295 19.1209C18.0295 18.7084 17.6958 18.374 17.2844 18.374Z" fill="#217BEA"/>
<path d="M19.0725 9.58521C18.6611 9.58521 18.3275 9.9196 18.3275 10.3321V17.3282C18.3275 17.7407 18.6611 18.0751 19.0725 18.0751C19.4839 18.0751 19.8175 17.7407 19.8175 17.3282V10.3321C19.8175 9.9196 19.4839 9.58521 19.0725 9.58521Z" fill="#217BEA"/>
</g>
<defs>
<clipPath id="clip0">
<rect width="38.1449" height="38.2418" fill="white"/>
</clipPath>
</defs>
</svg>
